<mxfile host="app.diagrams.net" modified="2023-01-16T11:44:56.588Z" agent="5.0 (X11; Linux x86_64) AppleWebKit/537.36 (KHTML, like Gecko) Chrome/109.0.0.0 Safari/537.36" version="20.8.5" etag="D-6kwKuNQ6K-Kvx9eWlg" type="github">
  <diagram id="9mNzQlDXo45Xxl22Bjxn" name="Page-1">
    <mxGraphModel dx="1306" dy="815" grid="1" gridSize="10" guides="1" tooltips="1" connect="1" arrows="1" fold="1" page="1" pageScale="1" pageWidth="850" pageHeight="1100" math="0" shadow="0">
      <root>
        <mxCell id="0" />
        <mxCell id="1" parent="0" />
      </root>
    </mxGraphModel>
  </diagram>
</mxfile>
